<svg width="48" height="48" viewBox="0 0 48 48" fill="none" xmlns="http://www.w3.org/2000/svg">
<rect width="48" height="48" rx="24" fill="url(#paint0_linear)"/>
<path d="M30.9349 26.7975C30.1212 26.6238 29.4774 27 28.9074 27.3275C28.3237 27.6638 27.8187 27.9563 27.1837 27.725C23.9249 26.3963 21.5987 24.0688 20.2737 20.8238C20.0399 20.1788 20.3312 19.6725 20.6674 19.0863C20.9949 18.5188 21.3662 17.8725 21.1974 17.06C21.0437 16.3288 18.7012 13.3825 18.0037 12.7C17.5437 12.2513 17.0724 12.0038 16.5899 11.9625C14.7712 11.8863 12.5224 14.5075 12.1649 15.0838C11.2724 16.3125 11.2787 17.9475 12.1812 19.93C14.3549 25.255 22.6674 33.5688 28.0524 35.8075C29.0462 36.27 29.9549 36.5 30.7712 36.5C31.5712 36.5 32.2812 36.2788 32.8924 35.8388C33.3537 35.5763 36.0974 33.2475 36.0312 31.3938C35.9912 30.9213 35.7437 30.4488 35.2949 29.9913C34.6124 29.2925 31.6662 26.95 30.9349 26.7975Z" fill="white"/>
<path opacity="0.4" d="M30.3246 21.236C30.4109 21.6773 30.7946 21.981 31.2271 21.981C31.2859 21.981 31.3446 21.9748 31.4046 21.9635C31.9034 21.866 32.2284 21.3823 32.1309 20.8848C31.6334 18.3323 29.6621 16.3623 27.1109 15.8648C26.6146 15.7785 26.1296 16.0923 26.0309 16.5923C25.9346 17.091 26.2609 17.5748 26.7584 17.671C28.5721 18.0248 29.9709 19.4235 30.3246 21.236Z" fill="white"/>
<path opacity="0.4" d="M27.0366 11.507C26.5304 11.4433 26.0754 11.8145 26.0204 12.3195C25.9641 12.8258 26.3291 13.2795 26.8329 13.3358C30.9754 13.7958 34.1941 17.0095 34.6591 21.1533C34.7129 21.622 35.1104 21.9695 35.5729 21.9695C35.6066 21.9695 35.6416 21.967 35.6766 21.9633C36.1816 21.907 36.5454 21.452 36.4879 20.947C35.9254 15.9445 32.0391 12.062 27.0366 11.507Z" fill="white"/>
<defs>
<linearGradient id="paint0_linear" x1="1.07045" y1="41.089" x2="30.8969" y2="10.949" gradientUnits="userSpaceOnUse">
<stop stop-color="#BEEA2E"/>
<stop offset="1" stop-color="#52BA00"/>
</linearGradient>
</defs>
</svg>
