<svg width="48" height="48" viewBox="0 0 48 48" fill="none" xmlns="http://www.w3.org/2000/svg">
<g id="LINE">
<g id="LINE_2">
<rect id="Rectangle" width="48" height="48" rx="24" fill="#00B900"/>
<path id="Subtract" fill-rule="evenodd" clip-rule="evenodd" d="M40 22.8017C40 15.6422 32.8227 9.8175 23.9998 9.8175C15.1782 9.8175 8 15.6422 8 22.8017C8 29.2201 13.6921 34.5954 21.3811 35.6119C21.9022 35.7242 22.6113 35.9554 22.7907 36.4008C22.9521 36.8054 22.8963 37.439 22.8423 37.8476C22.8423 37.8476 22.6546 38.9766 22.6141 39.2171L22.6079 39.2527C22.5319 39.6859 22.3403 40.7791 23.9998 40.0796C25.7077 39.36 33.2144 34.654 36.5712 30.7902H36.5705C38.8894 28.2475 40 25.6671 40 22.8017ZM20.7491 19.3419H19.6268C19.4547 19.3419 19.3148 19.4815 19.3148 19.6529V26.6247C19.3148 26.7965 19.4547 26.9357 19.6268 26.9357H20.7491C20.9211 26.9357 21.0607 26.7965 21.0607 26.6247V19.6529C21.0607 19.4815 20.9211 19.3419 20.7491 19.3419ZM27.3516 19.3419H28.4738C28.6462 19.3419 28.7855 19.4815 28.7855 19.6529V26.6247C28.7855 26.7965 28.6462 26.9357 28.4738 26.9357H27.3516C27.3239 26.9357 27.2973 26.9318 27.2718 26.925C27.2703 26.9247 27.2687 26.9241 27.2672 26.9241L27.2544 26.92L27.246 26.917C27.243 26.9161 27.2399 26.9149 27.2368 26.9137L27.2276 26.9098L27.2215 26.9072C27.2166 26.9051 27.2114 26.9026 27.2068 26.8999L27.2009 26.897L27.1979 26.8953C27.1914 26.8916 27.185 26.8876 27.1786 26.8836L27.1774 26.8826L27.1755 26.8811C27.1457 26.8609 27.1184 26.8354 27.0964 26.8042L23.8976 22.484V26.6247C23.8976 26.7965 23.758 26.9357 23.5856 26.9357H22.4636C22.2916 26.9357 22.1517 26.7965 22.1517 26.6247V19.6529C22.1517 19.4815 22.2916 19.3419 22.4636 19.3419H23.5856L23.5911 19.3422L23.5967 19.3425L23.6019 19.3428H23.602C23.6056 19.3429 23.6091 19.343 23.6126 19.3435L23.6214 19.3443C23.624 19.3446 23.6266 19.345 23.6292 19.3456C23.6335 19.3459 23.6381 19.3465 23.6424 19.3471L23.6502 19.3489L23.6602 19.3511L23.6653 19.3526L23.6709 19.3542C23.6773 19.3557 23.6835 19.3579 23.6896 19.36L23.6997 19.3637C23.7059 19.3658 23.7117 19.3686 23.7175 19.3714L23.7197 19.3723L23.7236 19.3742L23.7273 19.376C23.7328 19.3787 23.7384 19.3821 23.7439 19.3855C23.7473 19.387 23.7503 19.3888 23.7534 19.391C23.7568 19.3931 23.7601 19.3954 23.7634 19.3977L23.7697 19.402L23.7719 19.4037L23.7735 19.4049C23.7749 19.406 23.7763 19.4072 23.7776 19.4085C23.7835 19.4128 23.789 19.4174 23.7942 19.4223C23.7963 19.4241 23.7982 19.4257 23.8 19.4275C23.8065 19.4336 23.8126 19.4398 23.8187 19.4468L23.8209 19.4487C23.8295 19.4588 23.8377 19.4692 23.8451 19.4803L27.0399 23.7949V19.6529C27.0399 19.4815 27.1795 19.3419 27.3516 19.3419ZM18.0438 25.19H14.9943V19.6534C14.9943 19.4813 14.8548 19.3418 14.683 19.3418H13.5604C13.3883 19.3418 13.2488 19.4813 13.2488 19.6534V26.624V26.6246C13.2488 26.7083 13.2822 26.7841 13.3359 26.8399C13.3371 26.8414 13.3383 26.843 13.3402 26.8445L13.3448 26.8488C13.4009 26.9028 13.4764 26.9359 13.5601 26.9359H13.5604H18.0438C18.2158 26.9359 18.3548 26.796 18.3548 26.624V25.5017C18.3548 25.3296 18.2158 25.19 18.0438 25.19ZM34.9826 20.776C34.9826 20.9483 34.8436 21.0876 34.6716 21.0876H31.6224V22.2657H34.6716C34.8436 22.2657 34.9826 22.4056 34.9826 22.5777V23.7C34.9826 23.872 34.8436 24.0116 34.6716 24.0116H31.6224V25.19H34.6716C34.8436 25.19 34.9826 25.3299 34.9826 25.5016V26.6242C34.9826 26.796 34.8436 26.9359 34.6716 26.9359H30.1882H30.1876C30.1042 26.9359 30.0284 26.9024 29.9726 26.8488C29.971 26.8475 29.9692 26.846 29.968 26.8445C29.9664 26.8432 29.9649 26.8414 29.9637 26.8399C29.91 26.784 29.8766 26.7083 29.8766 26.6245V26.6242V19.6537V19.6534C29.8766 19.5699 29.9097 19.4945 29.9631 19.4387C29.9646 19.4368 29.9661 19.435 29.968 19.4331C29.9689 19.4319 29.9704 19.431 29.9717 19.4298C30.0278 19.3755 30.1035 19.3417 30.1876 19.3417H30.1882H34.6716C34.8436 19.3417 34.9826 19.4816 34.9826 19.6537V20.776Z" fill="white"/>
</g>
</g>
</svg>
