<svg width="48" height="48" viewBox="0 0 48 48" fill="none" xmlns="http://www.w3.org/2000/svg">
<g id="Mail.ru">
<g id="Mail.ru_2">
<rect id="Rectangle" width="48" height="48" rx="24" fill="#005FF9"/>
<path id="Vector" d="M28.8126 24C28.8126 26.6537 26.6537 28.8126 24 28.8126C21.3463 28.8126 19.1874 26.6537 19.1874 24C19.1874 21.3463 21.3463 19.1874 24 19.1874C26.6537 19.1874 28.8126 21.3463 28.8126 24ZM24 8C15.1771 8 8 15.1771 8 24C8 32.8229 15.1771 40 24 40C27.232 40 30.3486 39.0377 33.0126 37.2171L33.0583 37.1851L30.9029 34.68L30.8663 34.7029C28.816 36.0229 26.4411 36.72 24 36.72C16.9863 36.72 11.28 31.0137 11.28 24C11.28 16.9863 16.9863 11.28 24 11.28C31.0137 11.28 36.72 16.9863 36.72 24C36.72 24.9086 36.6183 25.8286 36.4206 26.7337C36.0183 28.3851 34.8617 28.8903 33.9943 28.824C33.1211 28.7531 32.0994 28.1314 32.0926 26.6091V25.4491V24C32.0926 19.5371 28.4629 15.9074 24 15.9074C19.5371 15.9074 15.9074 19.5371 15.9074 24C15.9074 28.4629 19.5371 32.0926 24 32.0926C26.168 32.0926 28.2011 31.2457 29.7337 29.704C30.6251 31.0914 32.0777 31.9611 33.7314 32.0937C33.8731 32.1051 34.0183 32.1109 34.1611 32.1109C35.3257 32.1109 36.4789 31.7211 37.4091 31.016C38.368 30.2869 39.0846 29.2343 39.48 27.9691C39.5429 27.7646 39.6594 27.2971 39.6594 27.2937L39.6629 27.2766C39.896 26.2617 40 25.2503 40 24C40 15.1771 32.8229 8 24 8" fill="white"/>
</g>
</g>
</svg>
