<svg width="48" height="48" viewBox="0 0 48 48" fill="none" xmlns="http://www.w3.org/2000/svg">
<rect width="48" height="48" rx="24" fill="#00AFF0"/>
<path d="M37.9382 26.4983C37.9287 26.5511 37.922 26.6043 37.912 26.657L37.8607 26.3548C37.8887 26.4019 37.912 26.4508 37.9382 26.4983C38.093 25.6555 38.1743 24.7927 38.1743 23.9304C38.1743 22.0182 37.7999 20.1629 37.0602 18.4164C36.3466 16.7294 35.3256 15.2143 34.0238 13.9135C32.724 12.6127 31.2079 11.5917 29.5218 10.8781C27.7758 10.1393 25.9206 9.76493 24.0083 9.76493C23.1071 9.76493 22.2044 9.8495 21.3259 10.0182C21.324 10.0186 21.3216 10.0186 21.3193 10.0191C21.3687 10.0452 21.4186 10.0685 21.467 10.0956L21.1691 10.049C21.219 10.0395 21.2694 10.0291 21.3193 10.0191C20.1139 9.3782 18.7585 9.03613 17.3864 9.03613C15.1463 9.03613 13.0402 9.90841 11.4563 11.4929C9.87275 13.0768 9 15.1829 9 17.423C9 18.8488 9.36677 20.2503 10.0552 21.4889C10.0642 21.4376 10.0704 21.3858 10.0804 21.3345L10.1317 21.6314C10.1051 21.5849 10.0818 21.5364 10.0552 21.4889C9.91551 22.2913 9.84187 23.1114 9.84187 23.9304C9.84187 25.8432 10.2162 27.6979 10.956 29.4449C11.6686 31.1324 12.6901 32.6466 13.9904 33.9474C15.2922 35.2482 16.8063 36.2706 18.4943 36.9823C20.2403 37.7225 22.096 38.0973 24.0083 38.0973C24.8407 38.0973 25.675 38.0213 26.4893 37.8769C26.4418 37.8503 26.3933 37.8261 26.3448 37.798L26.6475 37.8512C26.5952 37.8612 26.5425 37.8674 26.4893 37.8769C27.744 38.5867 29.1645 38.9639 30.615 38.9639C32.8546 38.9639 34.9598 38.0931 36.5437 36.5081C38.1282 34.9251 39 32.8185 39 30.5785C39 29.1479 38.6313 27.7417 37.9382 26.4983ZM24.0649 32.6062C19.0321 32.6062 16.7807 30.1319 16.7807 28.2776C16.7807 27.3264 17.4829 26.6599 18.4506 26.6599C20.6042 26.6599 20.0465 29.7523 24.0649 29.7523C26.122 29.7523 27.258 28.6353 27.258 27.4922C27.258 26.8048 26.9188 26.0427 25.5643 25.7087L21.0879 24.5913C17.4829 23.6872 16.8286 21.7383 16.8286 19.9064C16.8286 16.1027 20.4099 14.6746 23.7731 14.6746C26.8712 14.6746 30.5233 16.3868 30.5233 18.6687C30.5233 19.6465 29.6767 20.2152 28.7094 20.2152C26.8712 20.2152 27.2095 17.671 23.5071 17.671C21.6699 17.671 20.6522 18.5029 20.6522 19.6935C20.6522 20.8817 22.1032 21.2613 23.3631 21.5483L26.6765 22.2837C30.3057 23.0924 31.226 25.2113 31.226 27.2072C31.226 30.2981 28.8534 32.6062 24.0649 32.6062ZM26.3448 37.798C26.3933 37.8261 26.4418 37.8503 26.4893 37.8769C26.5425 37.8674 26.5952 37.8612 26.6475 37.8512L26.3448 37.798ZM37.912 26.657C37.922 26.6043 37.9287 26.5511 37.9382 26.4983C37.912 26.4508 37.8887 26.4019 37.8607 26.3548L37.912 26.657ZM10.0804 21.3345C10.0704 21.3858 10.0642 21.4376 10.0552 21.4889C10.0818 21.5364 10.1051 21.5849 10.1317 21.6314L10.0804 21.3345ZM21.467 10.0956C21.4186 10.0685 21.3687 10.0452 21.3193 10.0191C21.2694 10.0291 21.219 10.0395 21.1691 10.049L21.467 10.0956Z" fill="white"/>
</svg>
