<svg width="49" height="48" viewBox="0 0 49 48" fill="none" xmlns="http://www.w3.org/2000/svg">
<rect width="48" height="48" rx="24" fill="#00AC40"/>
<path fill-rule="evenodd" clip-rule="evenodd" d="M24 8C15.7157 8 9 14.7157 9 23C9 28.8371 12.3386 33.8986 17.2071 36.3757C17.8671 36.7229 18.5529 37.0229 19.2686 37.2671L18.5614 39.9886C18.4757 40.3229 18.7929 40.6186 19.1186 40.5071L28.9671 37.1814C29.5929 36.9543 30.2014 36.6843 30.7843 36.38C35.6571 33.9029 39 28.8414 39 23C39 14.7157 32.2843 8 24 8ZM33.0471 29.8871C32.5843 31.0229 31.2514 33.1957 27.84 33.1957C24.4157 33.1957 23.0871 31.01 22.6286 29.8786C22.5086 29.5871 22.8429 29.3043 23.22 29.3729C26.4857 29.96 29.55 29.93 32.4471 29.3857C32.8286 29.3086 33.1671 29.5914 33.0471 29.8871Z" fill="white"/>
<circle cx="41.75" cy="7.75" r="6.75" fill="#F90041"/>
<path opacity="0.9" d="M43 10.5H41.691V6.18342C41.2127 6.57473 40.6491 6.86413 40 7.05163V6.01223C40.3416 5.9144 40.7127 5.72962 41.1134 5.45788C41.514 5.18342 41.7888 4.86413 41.9379 4.5H43V10.5Z" fill="white"/>
</svg>
