<svg width="48" height="48" viewBox="0 0 48 48" fill="none" xmlns="http://www.w3.org/2000/svg">
<g id="Telegram">
<g id="Telegram_2">
<rect id="Rectangle" width="48" height="48" rx="24" fill="#419FD9"/>
<path id="Exclude" fill-rule="evenodd" clip-rule="evenodd" d="M29.3355 35.8843C31.013 36.6182 31.642 35.0805 31.642 35.0805L36.0804 12.7836C36.0455 11.2808 34.0185 12.1895 34.0185 12.1895L9.17039 21.94C9.17039 21.94 7.98215 22.3594 8.087 23.0933C8.19184 23.8272 9.13544 24.1767 9.13544 24.1767L15.3912 26.2736C15.3912 26.2736 17.2784 32.4594 17.6628 33.6476C18.0123 34.8009 18.3268 34.8359 18.3268 34.8359C18.6763 34.9757 18.9908 34.731 18.9908 34.731L23.0448 31.0615L29.3355 35.8843ZM30.4189 16.7327C30.4189 16.7327 31.2926 16.2085 31.2576 16.7327C31.2576 16.7327 31.3974 16.8026 30.9431 17.2919C30.5237 17.7112 20.6334 26.5881 19.3054 27.7763C19.2005 27.8462 19.1306 27.951 19.1306 28.0908L18.7462 31.376C18.6763 31.7254 18.222 31.7604 18.1171 31.4459L16.4746 26.0638C16.4047 25.8542 16.4746 25.6095 16.6842 25.4697L30.4189 16.7327Z" fill="white"/>
</g>
</g>
</svg>
