<svg width="48" height="48" viewBox="0 0 48 48" fill="none" xmlns="http://www.w3.org/2000/svg">
<mask id="path-1-inside-1" fill="white">
<path d="M48 23.7728C48 36.9022 37.2548 47.5456 24 47.5456C10.7452 47.5456 0 36.9022 0 23.7728C0 10.6434 10.7452 0 24 0C37.2548 0 48 10.6434 48 23.7728Z"/>
</mask>
<path d="M48 23.7728C48 36.9022 37.2548 47.5456 24 47.5456C10.7452 47.5456 0 36.9022 0 23.7728C0 10.6434 10.7452 0 24 0C37.2548 0 48 10.6434 48 23.7728Z" fill="#FAFCFD"/>
<path d="M47 23.7728C47 36.3409 36.7115 46.5456 24 46.5456V48.5456C37.7981 48.5456 49 37.4634 49 23.7728H47ZM24 46.5456C11.2885 46.5456 1 36.3409 1 23.7728H-1C-1 37.4634 10.2019 48.5456 24 48.5456V46.5456ZM1 23.7728C1 11.2047 11.2885 1 24 1V-1C10.2019 -1 -1 10.0822 -1 23.7728H1ZM24 1C36.7115 1 47 11.2047 47 23.7728H49C49 10.0822 37.7981 -1 24 -1V1Z" fill="black" fill-opacity="0.025" mask="url(#path-1-inside-1)"/>
<path d="M11.5762 27.6099C13.1639 27.6099 14.6569 27.5994 16.1395 27.6099C16.9701 27.6204 17.4222 27.9674 17.5064 28.6298C17.601 29.4605 17.1173 30.0177 16.2131 30.0282C14.5097 30.0493 12.8169 30.0388 11.1135 30.0388C10.6194 30.0388 10.1357 30.0598 9.64152 30.0282C9.03168 29.9967 8.43235 29.8705 8.13795 29.2397C7.84354 28.6088 8.05383 28.041 8.45338 27.5258C10.0726 25.465 11.7024 23.3936 13.3321 21.3328C13.4267 21.2066 13.5214 21.0804 13.616 20.9648C13.5108 20.786 13.3636 20.8701 13.2375 20.8596C12.1019 20.8491 10.9558 20.8596 9.82027 20.8491C9.5574 20.8491 9.29454 20.8176 9.04219 20.765C8.44287 20.6283 8.07486 20.029 8.21155 19.4402C8.30618 19.0406 8.62161 18.7147 9.02117 18.62C9.27351 18.5569 9.53637 18.5254 9.79924 18.5254C11.6708 18.5149 13.5529 18.5149 15.4245 18.5254C15.7609 18.5149 16.0869 18.5569 16.4128 18.6411C17.1278 18.8829 17.4328 19.5453 17.1489 20.2393C16.8965 20.8386 16.497 21.3538 16.0974 21.869C14.72 23.6249 13.3426 25.3703 11.9652 27.1052C11.8496 27.2419 11.7444 27.3786 11.5762 27.6099V27.6099Z" fill="#008BE6"/>
<path d="M23.7731 22.0793C24.0254 21.7533 24.2883 21.4484 24.7194 21.3643C25.55 21.1961 26.3281 21.7323 26.3386 22.5735C26.3701 24.6764 26.3596 26.7793 26.3386 28.8822C26.3386 29.4289 25.9811 29.9126 25.4659 30.0703C24.9402 30.2701 24.3408 30.1124 23.9939 29.6602C23.8151 29.4394 23.7415 29.3974 23.4892 29.5971C22.5323 30.3752 21.4494 30.5119 20.2823 30.1334C18.4107 29.5235 17.6431 28.062 17.4328 26.2851C17.212 24.3609 17.8534 22.7207 19.5778 21.7113C21.0077 20.8596 22.4587 20.9332 23.7731 22.0793V22.0793ZM20.0509 25.9171C20.072 26.3797 20.2192 26.8213 20.4925 27.1893C21.0603 27.9464 22.1433 28.1041 22.9109 27.5363C23.037 27.4417 23.1527 27.326 23.2579 27.1893C23.8467 26.3902 23.8467 25.0759 23.2579 24.2768C22.9634 23.8668 22.5008 23.6249 22.0066 23.6144C20.85 23.5408 20.0404 24.4345 20.0509 25.9171V25.9171ZM31.0596 25.9802C30.9755 23.2779 32.7524 21.2592 35.2759 21.1856C37.9571 21.1015 39.9128 22.8994 39.9969 25.528C40.081 28.1882 38.4513 30.0703 35.9383 30.3226C33.194 30.596 31.0175 28.6088 31.0596 25.9802V25.9802ZM33.6987 25.7278C33.6777 26.2535 33.8354 26.7688 34.1508 27.1998C34.7291 27.9569 35.8121 28.1041 36.5692 27.5153C36.6848 27.4312 36.7795 27.326 36.8741 27.2209C37.4839 26.4218 37.4839 25.0759 36.8846 24.2768C36.5902 23.8773 36.1276 23.6249 35.6334 23.6144C34.4978 23.5513 33.6987 24.4135 33.6987 25.7278V25.7278ZM30.1343 23.8878C30.1343 25.5175 30.1448 27.1473 30.1343 28.777C30.1448 29.5235 29.556 30.1439 28.8095 30.1649C28.6833 30.1649 28.5466 30.1544 28.4205 30.1229C27.8947 29.9862 27.4952 29.4289 27.4952 28.7665V20.4075C27.4952 19.9133 27.4847 19.4296 27.4952 18.9355C27.5057 18.1259 28.0209 17.6001 28.799 17.6001C29.5981 17.5896 30.1343 18.1153 30.1343 18.9565C30.1448 20.5968 30.1343 22.2475 30.1343 23.8878V23.8878Z" fill="#008BE6"/>
</svg>
